<svg version="1.0" xmlns="http://www.w3.org/2000/svg" width="483.000000pt" height="101.000000pt" viewBox="0 0 483.000000 101.000000" preserveAspectRatio="xMidYMid meet"><g transform="translate(0.000000,101.000000) scale(0.100000,-0.100000)" fill="currentColor" stroke="none"><path d="M263 757 c-99 -95 -182 -175 -182 -179 -1 -5 25 -8 58 -8 l58 0 124
114 123 114 77 -72 c42 -39 124 -115 182 -168 l104 -98 59 0 59 1 -130 124
c-71 68 -135 124 -140 125 -14 0 -107 95 -101 101 3 3 -20 31 -52 62 l-57 56
-182 -172z" /><path d="M1068 729 l-38 -19 0 -215 0 -215 45 0 45 0 0 235 c0 129 -3 235 -7
235 -5 -1 -25 -10 -45 -21z" /><path d="M1227 732 c-22 -24 -21 -45 1 -65 24 -22 55 -21 75 1 22 24 21 45 -1
65 -24 22 -55 21 -75 -1z" /><path d="M2020 720 c-14 -14 -20 -33 -20 -65 0 -41 -2 -45 -25 -45 -21 0 -25
-5 -25 -30 0 -25 4 -30 25 -30 l25 0 0 -135 0 -135 40 0 39 0 3 133 3 132 33
3 c28 3 32 7 32 33 0 27 -3 29 -36 29 -33 0 -35 2 -32 28 3 24 7 27 36 26 30
-2 32 0 32 31 0 25 -5 34 -22 39 -45 12 -88 6 -108 -14z" /><path d="M3798 724 c-25 -13 -28 -20 -28 -64 0 -47 -2 -50 -25 -50 -21 0 -25
-5 -25 -30 0 -25 4 -30 25 -30 l25 0 0 -115 c0 -111 1 -117 26 -142 23 -22 31
-25 72 -19 49 7 62 17 62 55 0 21 -3 23 -35 17 -30 -6 -35 -4 -40 16 -3 13 -5
59 -3 103 l3 80 38 3 c34 3 37 6 37 33 0 27 -2 29 -40 29 l-40 0 0 65 c0 71
-5 75 -52 49z" /><path d="M4002 728 c-19 -19 -14 -56 9 -68 47 -25 93 15 69 60 -12 23 -58 28
-78 8z" /><path d="M4208 724 l-28 -15 0 -214 0 -215 40 0 40 0 0 73 c0 65 10 97 30 97
3 0 25 -38 50 -85 l45 -85 43 0 c23 0 42 3 42 7 0 3 -27 57 -59 118 l-59 112
46 46 47 47 -50 0 c-44 0 -53 -4 -92 -42 l-43 -42 0 107 c0 116 -2 119 -52 91z" /><path d="M1410 505 l0 -225 40 0 40 0 0 225 0 225 -40 0 -40 0 0 -225z" /><path d="M434 571 c-45 -43 -84 -86 -87 -94 -7 -19 116 -132 133 -122 19 11
10 29 -36 76 l-46 46 76 68 c63 57 73 71 65 87 -5 10 -13 18 -17 18 -4 0 -43
-36 -88 -79z" /><path d="M1707 614 c-4 -4 -30 -7 -57 -5 l-50 2 0 -166 0 -165 40 0 40 0 0
106 c0 100 8 139 34 156 19 13 45 9 66 -12 18 -18 20 -33 20 -135 l0 -115 41
0 41 0 -4 140 c-3 136 -4 140 -30 166 -20 21 -39 28 -80 32 -29 2 -56 0 -61
-4z" /><path d="M2260 603 c-72 -37 -102 -159 -60 -251 25 -56 89 -88 159 -78 86 12
131 70 131 171 0 107 -48 165 -142 172 -38 3 -63 -1 -88 -14z m124 -84 c42
-49 32 -131 -19 -165 -80 -52 -144 116 -68 176 36 28 57 25 87 -11z" /><path d="M2687 613 c-4 -4 -30 -6 -57 -4 l-50 2 0 -166 0 -165 39 0 39 0 4
116 c3 108 5 117 27 135 22 18 33 18 77 2 6 -2 14 11 18 29 5 25 2 36 -11 45
-18 14 -75 18 -86 6z" /><path d="M2957 613 c-4 -4 -30 -6 -57 -4 l-50 2 0 -166 0 -165 40 0 40 0 0
109 c0 94 3 112 21 135 25 32 53 33 73 4 12 -17 16 -49 16 -135 l0 -113 40 0
40 0 0 109 c0 94 3 112 21 135 25 32 53 33 73 4 12 -17 16 -49 16 -135 l0
-113 40 0 40 0 0 135 c0 134 0 135 -28 166 -35 40 -110 51 -161 25 -28 -15
-34 -15 -53 -1 -23 15 -99 21 -111 8z" /><path d="M3447 606 c-49 -18 -49 -18 -38 -50 11 -28 22 -32 52 -16 33 18 90
15 105 -5 26 -35 18 -47 -25 -40 -49 8 -112 -8 -137 -36 -14 -15 -19 -36 -19
-76 0 -47 4 -58 28 -79 25 -22 35 -23 138 -23 l110 1 -3 139 c-3 135 -4 139
-30 166 -22 22 -38 27 -85 30 -34 2 -74 -3 -96 -11z m117 -182 c23 -9 19 -50
-6 -68 -29 -20 -62 -20 -82 0 -44 43 21 94 88 68z" /><path d="M4577 606 c-49 -18 -49 -18 -38 -50 11 -28 22 -32 52 -16 33 18 90
15 105 -5 26 -35 18 -47 -25 -40 -49 8 -112 -8 -137 -36 -14 -15 -19 -36 -19
-76 0 -47 4 -58 28 -79 25 -22 35 -23 138 -23 l110 1 -3 139 c-3 135 -4 139
-30 166 -22 22 -38 27 -85 30 -34 2 -74 -3 -96 -11z m117 -182 c23 -9 19 -50
-6 -68 -29 -20 -62 -20 -82 0 -44 43 21 94 88 68z" /><path d="M1220 432 c0 -196 -2 -202 -62 -217 -34 -9 -34 -12 -5 -48 20 -25 25
-26 58 -17 19 5 48 24 65 41 l29 30 3 195 3 194 -45 0 -46 0 0 -178z" /><path d="M4000 445 l0 -165 40 0 40 0 0 165 0 165 -40 0 -40 0 0 -165z" /><path d="M82 542 c2 -4 107 -110 234 -235 l231 -227 179 171 c98 95 181 176
182 180 2 5 -23 9 -55 9 l-58 0 -125 -114 -124 -114 -126 117 c-248 234 -231
221 -290 221 -28 0 -50 -4 -48 -8z" /><path d="M600 531 c0 -11 -18 -34 -40 -51 -22 -17 -38 -36 -35 -40 3 -5 0 -12
-7 -16 -7 -4 -10 -4 -6 1 4 4 -10 21 -32 37 -49 36 -52 37 -56 16 -2 -16 69
-89 85 -88 3 0 37 29 75 63 51 46 68 68 63 80 -9 24 -47 22 -47 -2z" /></g></svg>